<svg xmlns="http://www.w3.org/2000/svg" viewBox="0 0 260 260">
	<path fill="#01A601" d="M130 .5c20.1 0 39.1 4.6 56.1 12.7-7 5.5-13.4 10.8-19.4 15.9-11.4-4.2-23.8-6.4-36.7-6.4-29.6 0-56.5 12-75.9 31.4-19.4 19.4-31.4 46.3-31.4 75.9s12 56.5 31.4 75.9 46.3 31.4 75.9 31.4 56.5-12 75.9-31.4c19.4-19.4 31.4-46.3 31.4-75.9 0-7-.7-14-2-20.6 5.6-7.3 11.3-14.5 17.1-21.7 4.6 13.2 7.1 27.5 7.1 42.3 0 35.8-14.5 68.1-37.9 91.6s-55.8 37.9-91.6 37.9-68.1-14.5-91.6-37.9S.4 165.8.4 130s14.6-68.1 38-91.6S94.2.5 130 .5z"/>
	<path fill="#01A601" d="M69.7 108.7l31.6-.4 2.4.6c6.4 3.7 12.4 7.9 18 12.6 4 3.4 7.9 7.2 11.6 11.2 11.3-18.2 23.4-35 36.2-50.4 14-16.9 28.8-32.2 44.4-46.2l3.1-1.2h34.5l-7 7.7C223 66.5 203.6 91 186.1 116.3c-17.5 25.3-33.2 51.5-47.1 78.4l-4.3 8.4-4-8.5c-7.3-15.8-16.2-30.3-26.6-43.2-10.5-12.9-22.7-24.4-36.9-34.2l2.5-8.5z"/>
</svg>
